<?xml version="1.0" encoding="UTF-8"?> <svg xmlns="http://www.w3.org/2000/svg" xmlns:xlink="http://www.w3.org/1999/xlink" width="59.422" height="54.177" viewBox="0 0 59.422 54.177"><defs><clipPath id="clip-path"><rect id="Rectangle_168" data-name="Rectangle 168" width="36.934" height="36.932" fill="none"></rect></clipPath><clipPath id="clip-path-2"><rect id="Rectangle_169" data-name="Rectangle 169" width="35.058" height="35.059" fill="none"></rect></clipPath></defs><g id="Group_172" data-name="Group 172" transform="translate(0 17.245)" opacity="0.9"><g id="Group_171" data-name="Group 171"><g id="Group_170" data-name="Group 170" clip-path="url(#clip-path)"><path id="Path_184" data-name="Path 184" d="M126.046,14.131a17.531,17.531,0,1,0,1.339,24.756,17.533,17.533,0,0,0-1.339-24.756" transform="translate(-95.867 -8.718)" fill="#6b2c90"></path><path id="Path_185" data-name="Path 185" d="M114.757,46.087a18.45,18.45,0,1,1,1.021-.026c-.341.019-.68.026-1.021.026m.034-35.05a16.579,16.579,0,1,0,11.068,4.232,16.557,16.557,0,0,0-11.068-4.232" transform="translate(-96.309 -9.155)" fill="#fff"></path></g></g></g><g id="Group_175" data-name="Group 175" transform="translate(10.452)" opacity="0.8"><g id="Group_174" data-name="Group 174" transform="translate(0 0)"><g id="Group_173" data-name="Group 173" clip-path="url(#clip-path-2)"><path id="Path_186" data-name="Path 186" d="M131.093,4.483a17.53,17.53,0,1,0,1.341,24.753,17.53,17.53,0,0,0-1.341-24.753" transform="translate(-101.858 0)" fill="#eceb7f"></path></g></g></g><path id="Path_187" data-name="Path 187" d="M138.478,14.407a17.53,17.53,0,1,0,1.341,24.754,17.529,17.529,0,0,0-1.341-24.754" transform="translate(-84.88 8.769)" fill="#ffd817"></path></svg> 