<?xml version="1.0" encoding="UTF-8"?> <svg xmlns="http://www.w3.org/2000/svg" xmlns:xlink="http://www.w3.org/1999/xlink" id="Group_188" data-name="Group 188" width="246.667" height="69.689" viewBox="0 0 246.667 69.689"><defs><clipPath id="clip-path"><rect id="Rectangle_177" data-name="Rectangle 177" width="246.667" height="69.689" fill="none"></rect></clipPath><clipPath id="clip-path-2"><rect id="Rectangle_176" data-name="Rectangle 176" width="246.667" height="69.69" fill="none"></rect></clipPath><clipPath id="clip-path-3"><rect id="Rectangle_168" data-name="Rectangle 168" width="36.934" height="36.932" fill="none"></rect></clipPath><clipPath id="clip-path-4"><rect id="Rectangle_169" data-name="Rectangle 169" width="35.058" height="35.059" fill="none"></rect></clipPath><clipPath id="clip-path-5"><rect id="Rectangle_170" data-name="Rectangle 170" width="39.513" height="39.984" fill="none"></rect></clipPath><clipPath id="clip-path-6"><rect id="Rectangle_171" data-name="Rectangle 171" width="40.667" height="40.616" fill="none"></rect></clipPath><clipPath id="clip-path-7"><rect id="Rectangle_175" data-name="Rectangle 175" width="39.831" height="40.19" fill="none"></rect></clipPath></defs><g id="Group_187" data-name="Group 187" clip-path="url(#clip-path)"><g id="Group_186" data-name="Group 186" transform="translate(0 -0.001)"><g id="Group_185" data-name="Group 185" clip-path="url(#clip-path-2)"><path id="Path_150" data-name="Path 150" d="M.3,38.344a4.239,4.239,0,0,0,2.144.6c1.222,0,1.936-.644,1.936-1.58,0-.866-.494-1.36-1.744-1.84C1.125,34.994.192,34.21.192,32.9c0-1.441,1.194-2.513,2.995-2.513a4.217,4.217,0,0,1,2.047.454l-.332.974a3.692,3.692,0,0,0-1.757-.439c-1.264,0-1.744.755-1.744,1.388,0,.865.563,1.292,1.842,1.786,1.565.6,2.36,1.36,2.36,2.722,0,1.426-1.057,2.663-3.24,2.663A4.767,4.767,0,0,1,0,39.347Z" transform="translate(0 26.854)" fill="#fff"></path><path id="Path_151" data-name="Path 151" d="M8.007,38.578l-.1-.84H7.868a2.47,2.47,0,0,1-2.032.991A1.894,1.894,0,0,1,3.8,36.818c0-1.607,1.428-2.486,4-2.473v-.138a1.37,1.37,0,0,0-1.509-1.539,3.319,3.319,0,0,0-1.733.5l-.275-.8a4.124,4.124,0,0,1,2.185-.591C8.5,31.776,9,33.164,9,34.5v2.484a9.325,9.325,0,0,0,.111,1.6Zm-.179-3.394c-1.319-.028-2.816.205-2.816,1.5a1.068,1.068,0,0,0,1.14,1.153A1.657,1.657,0,0,0,7.76,36.72a1.289,1.289,0,0,0,.068-.384Z" transform="translate(3.36 28.078)" fill="#fff"></path><rect id="Rectangle_165" data-name="Rectangle 165" width="1.209" height="9.755" transform="translate(14.754 56.9)" fill="#fff"></rect><path id="Path_152" data-name="Path 152" d="M10.687,35.472a2.133,2.133,0,0,0,2.281,2.309,4.407,4.407,0,0,0,1.842-.345l.205.865a5.382,5.382,0,0,1-2.211.413,3.087,3.087,0,0,1-3.27-3.353c0-2,1.181-3.585,3.117-3.585,2.172,0,2.748,1.91,2.748,3.132a5.178,5.178,0,0,1-.04.563Zm3.545-.866a1.72,1.72,0,0,0-1.676-1.965A2,2,0,0,0,10.7,34.605Z" transform="translate(8.424 28.078)" fill="#fff"></path><path id="Path_153" data-name="Path 153" d="M13.734,37.34a3.171,3.171,0,0,0,1.6.48c.878,0,1.29-.441,1.29-.991,0-.574-.343-.891-1.236-1.221-1.2-.428-1.759-1.087-1.759-1.884a2.05,2.05,0,0,1,2.294-1.95,3.29,3.29,0,0,1,1.635.413l-.3.878a2.587,2.587,0,0,0-1.358-.384c-.714,0-1.113.413-1.113.908,0,.548.4.8,1.264,1.125,1.153.441,1.744,1.017,1.744,2.006,0,1.168-.906,1.993-2.486,1.993a3.788,3.788,0,0,1-1.869-.454Z" transform="translate(11.87 28.078)" fill="#fff"></path><path id="Path_154" data-name="Path 154" d="M16.572,35.412a.811.811,0,0,1,.823-.865.867.867,0,0,1-.013,1.731.809.809,0,0,1-.81-.866" transform="translate(14.643 30.527)" fill="#fff"></path><path id="Path_155" data-name="Path 155" d="M28.193,35.663c-.07-1.292-.153-2.844-.138-4h-.041c-.316,1.085-.7,2.238-1.168,3.517l-1.635,4.492H24.3l-1.5-4.411c-.441-1.3-.812-2.5-1.074-3.6h-.026c-.028,1.153-.1,2.7-.179,4.093l-.247,3.971h-1.14l.644-9.26h1.526l1.58,4.479c.384,1.141.7,2.157.934,3.117h.04c.234-.934.563-1.951.976-3.117l1.65-4.479h1.524l.576,9.26H28.426Z" transform="translate(17.798 26.924)" fill="#fff"></path><path id="Path_156" data-name="Path 156" d="M30.325,38.578l-.1-.84h-.043a2.47,2.47,0,0,1-2.032.991,1.894,1.894,0,0,1-2.032-1.91c0-1.607,1.428-2.486,4-2.473v-.138a1.37,1.37,0,0,0-1.509-1.539,3.319,3.319,0,0,0-1.733.5l-.275-.8a4.124,4.124,0,0,1,2.185-.591c2.032,0,2.528,1.388,2.528,2.722v2.484a9.325,9.325,0,0,0,.111,1.6Zm-.179-3.394c-1.319-.028-2.816.205-2.816,1.5a1.068,1.068,0,0,0,1.14,1.153,1.657,1.657,0,0,0,1.609-1.113,1.289,1.289,0,0,0,.068-.384Z" transform="translate(23.081 28.078)" fill="#fff"></path><path id="Path_157" data-name="Path 157" d="M30.176,34c0-.784-.013-1.456-.055-2.076h1.057l.043,1.305h.053a2,2,0,0,1,1.842-1.456,1.266,1.266,0,0,1,.343.041v1.14a1.88,1.88,0,0,0-.413-.04,1.7,1.7,0,0,0-1.62,1.552,3.3,3.3,0,0,0-.055.563v3.545h-1.2Z" transform="translate(26.615 28.078)" fill="#fff"></path><path id="Path_158" data-name="Path 158" d="M34,36.363h.028c.166-.234.4-.522.59-.755l1.951-2.294h1.458l-2.571,2.733,2.927,3.916H36.91l-2.3-3.187L34,37.461v2.5H32.8V30.207H34Z" transform="translate(28.983 26.692)" fill="#fff"></path><path id="Path_159" data-name="Path 159" d="M37.356,35.472a2.133,2.133,0,0,0,2.281,2.309,4.421,4.421,0,0,0,1.842-.345l.205.865a5.4,5.4,0,0,1-2.213.413A3.086,3.086,0,0,1,36.2,35.361c0-2,1.181-3.585,3.117-3.585,2.17,0,2.748,1.91,2.748,3.132a4.648,4.648,0,0,1-.041.563Zm3.545-.866a1.722,1.722,0,0,0-1.676-1.965,2.007,2.007,0,0,0-1.855,1.965Z" transform="translate(31.989 28.078)" fill="#fff"></path><path id="Path_160" data-name="Path 160" d="M42.159,30.842v1.91H43.89v.919H42.159v3.586c0,.825.234,1.292.906,1.292a2.784,2.784,0,0,0,.7-.083l.055.906a2.97,2.97,0,0,1-1.074.164,1.68,1.68,0,0,1-1.3-.507,2.458,2.458,0,0,1-.467-1.731V33.671h-1.03v-.919h1.03V31.158Z" transform="translate(35.299 27.253)" fill="#fff"></path><path id="Path_161" data-name="Path 161" d="M44.416,31.218a.749.749,0,0,1-1.5,0,.738.738,0,0,1,.755-.755.718.718,0,0,1,.742.755M43.07,33.087h1.209v6.649H43.07Z" transform="translate(37.924 26.918)" fill="#fff"></path><path id="Path_162" data-name="Path 162" d="M44.965,33.726c0-.686-.013-1.249-.053-1.8h1.07l.07,1.1h.026a2.449,2.449,0,0,1,2.2-1.249c.921,0,2.351.548,2.351,2.829v3.971H49.416V34.743c0-1.072-.4-1.965-1.537-1.965a1.716,1.716,0,0,0-1.62,1.236,1.7,1.7,0,0,0-.083.563v4H44.965Z" transform="translate(39.685 28.078)" fill="#fff"></path><path id="Path_163" data-name="Path 163" d="M55.179,31.927c-.026.48-.053,1.017-.053,1.827v3.861a3.821,3.821,0,0,1-.949,3.036,3.524,3.524,0,0,1-2.417.8,4.293,4.293,0,0,1-2.213-.55l.3-.919a3.762,3.762,0,0,0,1.95.52c1.236,0,2.144-.646,2.144-2.321v-.742h-.028A2.372,2.372,0,0,1,51.8,38.549a2.972,2.972,0,0,1-2.829-3.244c0-2.253,1.469-3.53,2.995-3.53a2.217,2.217,0,0,1,2.076,1.155h.024l.057-1Zm-1.249,2.624a1.721,1.721,0,0,0-.07-.548,1.741,1.741,0,0,0-1.69-1.279c-1.155,0-1.978.976-1.978,2.515,0,1.305.659,2.39,1.965,2.39a1.767,1.767,0,0,0,1.676-1.236,2.141,2.141,0,0,0,.1-.646Z" transform="translate(43.271 28.078)" fill="#fff"></path><path id="Path_164" data-name="Path 164" d="M53.278,35.412a.811.811,0,0,1,.823-.865.867.867,0,0,1-.013,1.731.809.809,0,0,1-.81-.866" transform="translate(47.077 30.527)" fill="#fff"></path><path id="Path_165" data-name="Path 165" d="M58.936,31.487H56.118V30.47h6.856v1.017H60.145V39.73H58.936Z" transform="translate(49.587 26.925)" fill="#fff"></path><path id="Path_166" data-name="Path 166" d="M60.9,35.472a2.133,2.133,0,0,0,2.281,2.309,4.414,4.414,0,0,0,1.842-.345l.205.865a5.4,5.4,0,0,1-2.213.413,3.087,3.087,0,0,1-3.268-3.353c0-2,1.181-3.585,3.117-3.585,2.17,0,2.748,1.91,2.748,3.132a5.176,5.176,0,0,1-.04.563Zm3.545-.866a1.721,1.721,0,0,0-1.676-1.965,2,2,0,0,0-1.853,1.965Z" transform="translate(52.793 28.078)" fill="#fff"></path><path id="Path_167" data-name="Path 167" d="M68.857,38.322a4.445,4.445,0,0,1-1.91.384,3.157,3.157,0,0,1-3.31-3.392,3.379,3.379,0,0,1,3.571-3.532,4.027,4.027,0,0,1,1.676.345l-.275.934a2.793,2.793,0,0,0-1.4-.316,2.3,2.3,0,0,0-2.349,2.515,2.279,2.279,0,0,0,2.307,2.486,3.419,3.419,0,0,0,1.484-.33Z" transform="translate(56.231 28.084)" fill="#fff"></path><path id="Path_168" data-name="Path 168" d="M67.4,30.208h1.209v4.15h.026A2.259,2.259,0,0,1,69.5,33.5a2.5,2.5,0,0,1,1.236-.343c.895,0,2.322.548,2.322,2.844v3.957H71.848V36.141c0-1.07-.4-1.976-1.537-1.976a1.739,1.739,0,0,0-1.622,1.207,1.454,1.454,0,0,0-.083.578v4.012H67.4Z" transform="translate(59.553 26.693)" fill="#fff"></path><path id="Path_169" data-name="Path 169" d="M71.709,33.726c0-.686-.013-1.249-.055-1.8h1.072l.068,1.1h.028a2.447,2.447,0,0,1,2.2-1.249c.921,0,2.349.548,2.349,2.829v3.971H76.16V34.743c0-1.072-.4-1.965-1.537-1.965A1.716,1.716,0,0,0,73,34.014a1.7,1.7,0,0,0-.083.563v4H71.709Z" transform="translate(63.314 28.078)" fill="#fff"></path><path id="Path_170" data-name="Path 170" d="M82.211,35.2A3.251,3.251,0,0,1,78.9,38.728a3.161,3.161,0,0,1-3.187-3.423,3.245,3.245,0,0,1,3.3-3.53,3.151,3.151,0,0,1,3.2,3.421m-5.276.07c0,1.454.836,2.554,2.017,2.554,1.157,0,2.021-1.085,2.021-2.582,0-1.126-.563-2.554-1.993-2.554S76.935,34,76.935,35.266" transform="translate(66.901 28.078)" fill="#fff"></path><rect id="Rectangle_166" data-name="Rectangle 166" width="1.209" height="9.755" transform="translate(151.083 56.9)" fill="#fff"></rect><path id="Path_171" data-name="Path 171" d="M88.409,35.2a3.25,3.25,0,0,1-3.31,3.532,3.161,3.161,0,0,1-3.189-3.423,3.246,3.246,0,0,1,3.3-3.53,3.151,3.151,0,0,1,3.2,3.421m-5.274.07c0,1.454.834,2.554,2.017,2.554,1.155,0,2.019-1.085,2.019-2.582,0-1.126-.563-2.554-1.993-2.554S83.135,34,83.135,35.266" transform="translate(72.378 28.078)" fill="#fff"></path><path id="Path_172" data-name="Path 172" d="M92.362,31.927c-.028.48-.055,1.017-.055,1.827v3.861a3.821,3.821,0,0,1-.949,3.036,3.521,3.521,0,0,1-2.417.8,4.293,4.293,0,0,1-2.213-.55l.3-.919a3.762,3.762,0,0,0,1.95.52c1.238,0,2.144-.646,2.144-2.321v-.742H91.1a2.375,2.375,0,0,1-2.117,1.113,2.972,2.972,0,0,1-2.829-3.244c0-2.253,1.469-3.53,2.995-3.53a2.217,2.217,0,0,1,2.076,1.155h.026l.057-1Zm-1.251,2.624A1.722,1.722,0,0,0,91.044,34a1.745,1.745,0,0,0-1.691-1.279c-1.153,0-1.976.976-1.976,2.515,0,1.305.657,2.39,1.965,2.39a1.766,1.766,0,0,0,1.675-1.236,2.142,2.142,0,0,0,.1-.646Z" transform="translate(76.125 28.078)" fill="#fff"></path><path id="Path_173" data-name="Path 173" d="M91.574,31.856l1.456,3.929c.153.439.316.963.426,1.36h.028c.124-.4.26-.908.426-1.388l1.319-3.9H96.5L94.693,36.6c-.866,2.279-1.456,3.447-2.281,4.163a3.308,3.308,0,0,1-1.484.782l-.3-1.015a3.268,3.268,0,0,0,1.059-.591A3.723,3.723,0,0,0,92.7,38.588.871.871,0,0,0,92.8,38.3a1,1,0,0,0-.083-.316l-2.458-6.127Z" transform="translate(79.75 28.149)" fill="#fff"></path><path id="Path_174" data-name="Path 174" d="M93.956,35.412a.812.812,0,0,1,.823-.865.867.867,0,0,1-.011,1.731.811.811,0,0,1-.812-.866" transform="translate(83.021 30.527)" fill="#fff"></path><path id="Path_175" data-name="Path 175" d="M97.711,38.344a4.233,4.233,0,0,0,2.144.6c1.222,0,1.936-.644,1.936-1.58,0-.866-.5-1.36-1.744-1.84C98.535,34.994,97.6,34.21,97.6,32.9c0-1.441,1.2-2.513,2.995-2.513a4.205,4.205,0,0,1,2.047.454l-.33.974a3.692,3.692,0,0,0-1.757-.439c-1.264,0-1.746.755-1.746,1.388,0,.865.565,1.292,1.842,1.786,1.567.6,2.362,1.36,2.362,2.722,0,1.426-1.057,2.663-3.242,2.663a4.765,4.765,0,0,1-2.362-.591Z" transform="translate(86.073 26.854)" fill="#fff"></path><path id="Path_176" data-name="Path 176" d="M102.885,31.218a.749.749,0,0,1-1.5,0,.738.738,0,0,1,.755-.755.719.719,0,0,1,.742.755m-1.347,1.869h1.209v6.649h-1.209Z" transform="translate(89.588 26.918)" fill="#fff"></path><path id="Path_177" data-name="Path 177" d="M103.436,33.726c0-.686-.013-1.249-.055-1.8h1.057l.057,1.07h.041a2.287,2.287,0,0,1,2.087-1.221,1.962,1.962,0,0,1,1.882,1.332h.028a2.734,2.734,0,0,1,.742-.865,2.267,2.267,0,0,1,1.471-.467c.88,0,2.183.576,2.183,2.884v3.916h-1.181V34.811c0-1.277-.467-2.047-1.443-2.047a1.565,1.565,0,0,0-1.428,1.1,1.95,1.95,0,0,0-.1.607v4.106H107.6V34.592c0-1.059-.467-1.829-1.386-1.829a1.8,1.8,0,0,0-1.594,1.8v4.012h-1.183Z" transform="translate(91.349 28.078)" fill="#fff"></path><path id="Path_178" data-name="Path 178" d="M109.758,34.1c0-.853-.026-1.541-.055-2.172h1.085l.055,1.141h.028a2.615,2.615,0,0,1,2.364-1.292c1.607,0,2.816,1.36,2.816,3.379,0,2.392-1.456,3.573-3.021,3.573a2.335,2.335,0,0,1-2.047-1.045h-.028V41.3h-1.2Zm1.2,1.771a2.807,2.807,0,0,0,.055.5,1.867,1.867,0,0,0,1.814,1.416c1.277,0,2.019-1.045,2.019-2.571,0-1.334-.7-2.471-1.978-2.471a1.927,1.927,0,0,0-1.827,1.5,1.868,1.868,0,0,0-.083.5Z" transform="translate(96.935 28.078)" fill="#fff"></path><rect id="Rectangle_167" data-name="Rectangle 167" width="1.209" height="9.755" transform="translate(214.958 56.9)" fill="#fff"></rect><path id="Path_179" data-name="Path 179" d="M117.493,31.218a.749.749,0,0,1-1.5,0,.738.738,0,0,1,.755-.755.718.718,0,0,1,.742.755m-1.347,1.869h1.209v6.649h-1.209Z" transform="translate(102.496 26.918)" fill="#fff"></path><path id="Path_180" data-name="Path 180" d="M118.521,40.033V34.3h-.932v-.919h.932v-.358a2.666,2.666,0,0,1,2.9-2.9,3.325,3.325,0,0,1,1.691.441l-.345.919a2.546,2.546,0,0,0-1.4-.384c-1.277,0-1.648.893-1.648,1.951v.33h3.861v6.649h-1.2V34.3h-2.665v5.73Z" transform="translate(103.903 26.621)" fill="#fff"></path><path id="Path_181" data-name="Path 181" d="M122.969,35.472a2.133,2.133,0,0,0,2.281,2.309,4.414,4.414,0,0,0,1.842-.345l.205.865a5.4,5.4,0,0,1-2.213.413,3.087,3.087,0,0,1-3.268-3.353c0-2,1.181-3.585,3.117-3.585,2.17,0,2.748,1.91,2.748,3.132a5.18,5.18,0,0,1-.04.563Zm3.545-.866a1.721,1.721,0,0,0-1.676-1.965,2,2,0,0,0-1.853,1.965Z" transform="translate(107.638 28.078)" fill="#fff"></path><path id="Path_182" data-name="Path 182" d="M131.93,30.208v8.037c0,.59.013,1.264.055,1.718H130.9l-.057-1.157h-.026a2.457,2.457,0,0,1-2.266,1.307c-1.609,0-2.844-1.36-2.844-3.379-.015-2.213,1.36-3.573,2.982-3.573a2.222,2.222,0,0,1,2,1.015h.028V30.208Zm-1.209,5.811a2.236,2.236,0,0,0-.055-.509,1.781,1.781,0,0,0-1.744-1.4c-1.251,0-1.993,1.1-1.993,2.571,0,1.345.659,2.458,1.965,2.458a1.82,1.82,0,0,0,1.772-1.443,2.175,2.175,0,0,0,.055-.522Z" transform="translate(111.075 26.693)" fill="#fff"></path><path id="Path_183" data-name="Path 183" d="M130.086,35.412a.812.812,0,0,1,.825-.865.867.867,0,0,1-.013,1.731.811.811,0,0,1-.812-.866" transform="translate(114.946 30.527)" fill="#fff"></path><g id="Group_172" data-name="Group 172" transform="translate(181.409 17.245)" opacity="0.9"><g id="Group_171" data-name="Group 171"><g id="Group_170" data-name="Group 170" clip-path="url(#clip-path-3)"><path id="Path_184" data-name="Path 184" d="M126.046,14.131a17.531,17.531,0,1,0,1.339,24.756,17.533,17.533,0,0,0-1.339-24.756" transform="translate(-95.867 -8.718)" fill="#6b2c90"></path><path id="Path_185" data-name="Path 185" d="M114.757,46.087a18.45,18.45,0,1,1,1.021-.026c-.341.019-.68.026-1.021.026m.034-35.05a16.579,16.579,0,1,0,11.068,4.232,16.557,16.557,0,0,0-11.068-4.232" transform="translate(-96.309 -9.155)" fill="#fff"></path></g></g></g><g id="Group_175" data-name="Group 175" transform="translate(191.861 0.001)" opacity="0.8"><g id="Group_174" data-name="Group 174" transform="translate(0 0)"><g id="Group_173" data-name="Group 173" clip-path="url(#clip-path-4)"><path id="Path_186" data-name="Path 186" d="M131.093,4.483a17.53,17.53,0,1,0,1.341,24.753,17.53,17.53,0,0,0-1.341-24.753" transform="translate(-101.858 0)" fill="#eceb7f"></path></g></g></g><path id="Path_187" data-name="Path 187" d="M138.478,14.407a17.53,17.53,0,1,0,1.341,24.754,17.529,17.529,0,0,0-1.341-24.754" transform="translate(96.529 8.77)" fill="#ffd817"></path><g id="Group_178" data-name="Group 178" transform="translate(191.855 7.931)" opacity="0.9"><g id="Group_177" data-name="Group 177"><g id="Group_176" data-name="Group 176" clip-path="url(#clip-path-5)"><path id="Path_188" data-name="Path 188" d="M138.343,14.374l-4.492-3.941a18.564,18.564,0,0,0-26.19,1.853,18.8,18.8,0,0,0,1.884,26.523A19.041,19.041,0,0,0,136.4,36.889a19.2,19.2,0,0,0,1.942-22.515m-8.631-8.618L134.446,9.7a19.507,19.507,0,0,1,2.321,27.484,19.743,19.743,0,0,1-27.813,2.355A19.973,19.973,0,0,1,106.565,11.4a20.15,20.15,0,0,1,23.148-5.64" transform="translate(-101.856 -4.21)" fill="#c9aed3"></path></g></g></g><g id="Group_181" data-name="Group 181" transform="translate(193.076 5.317)" opacity="0.9"><g id="Group_180" data-name="Group 180"><g id="Group_179" data-name="Group 179" clip-path="url(#clip-path-6)"><path id="Path_189" data-name="Path 189" d="M135.434,8.369a15.808,15.808,0,0,0-6.708-3.358,20.6,20.6,0,0,0-7.327-.288,18.44,18.44,0,1,0,19.825,16.943,20.186,20.186,0,0,0-1.42-7.2,15.93,15.93,0,0,0-4.37-6.1m0,0c3.792,3.268,6.977,7.791,7.668,13.151A20.322,20.322,0,1,1,121.25,2.831c5.408-.173,10.371,2.3,14.184,5.538" transform="translate(-102.503 -2.822)" fill="#d3dd25"></path></g></g></g><path id="Path_190" data-name="Path 190" d="M106.352,16.43a1.45,1.45,0,0,0,.746.209c.424,0,.672-.222.672-.548,0-.3-.173-.473-.607-.639-.526-.186-.851-.458-.851-.912a.926.926,0,0,1,1.042-.872,1.454,1.454,0,0,1,.71.156l-.113.339a1.3,1.3,0,0,0-.612-.153c-.437,0-.6.262-.6.482,0,.3.2.448.639.62.544.211.821.473.821.946,0,.5-.367.925-1.126.925a1.689,1.689,0,0,1-.821-.2Z" transform="translate(93.88 12.079)" fill="#6d6e70"></path><rect id="Rectangle_172" data-name="Rectangle 172" width="0.416" height="3.215" transform="translate(202.831 25.8)" fill="#6d6e70"></rect><path id="Path_191" data-name="Path 191" d="M111.139,15.5c-.024-.446-.051-.985-.047-1.386h-.015c-.109.377-.243.776-.4,1.221l-.569,1.56h-.315l-.52-1.531c-.153-.452-.283-.868-.371-1.249h-.009c-.009.4-.034.94-.064,1.422l-.085,1.377h-.4l.224-3.215h.529l.548,1.556c.134.4.245.75.326,1.081h.013c.083-.324.2-.676.339-1.081L110.9,13.7h.529l.2,3.215h-.407Z" transform="translate(95.734 12.104)" fill="#6d6e70"></path><path id="Path_192" data-name="Path 192" d="M110.527,13.747a4.777,4.777,0,0,1,.8-.062,1.326,1.326,0,0,1,.9.266.869.869,0,0,1,.281.674.952.952,0,0,1-.249.688,1.328,1.328,0,0,1-.981.35,1.513,1.513,0,0,1-.335-.026v1.287h-.416Zm.416,1.55a1.363,1.363,0,0,0,.345.034c.5,0,.8-.243.8-.689,0-.422-.3-.629-.757-.629a1.745,1.745,0,0,0-.392.034Z" transform="translate(97.663 12.093)" fill="#6d6e70"></path><path id="Path_193" data-name="Path 193" d="M111.977,13.7h.416v2.867h1.373v.348h-1.789Z" transform="translate(98.944 12.103)" fill="#6d6e70"></path><rect id="Rectangle_173" data-name="Rectangle 173" width="0.416" height="3.215" transform="translate(213.364 25.8)" fill="#6d6e70"></rect><path id="Path_194" data-name="Path 194" d="M113.98,13.7h1.733v.348H114.4v1.068h1.215v.345H114.4v1.454h-.416Z" transform="translate(100.715 12.103)" fill="#6d6e70"></path><rect id="Rectangle_174" data-name="Rectangle 174" width="0.416" height="3.215" transform="translate(217.211 25.8)" fill="#6d6e70"></rect><path id="Path_195" data-name="Path 195" d="M117.689,15.405h-1.251v1.158h1.392v.348h-1.808V13.7h1.737v.347h-1.32v1.017h1.251Z" transform="translate(102.519 12.104)" fill="#6d6e70"></path><path id="Path_196" data-name="Path 196" d="M117.37,13.75a6.318,6.318,0,0,1,.883-.066,1.834,1.834,0,0,1,1.3.4,1.478,1.478,0,0,1,.456,1.155,1.694,1.694,0,0,1-.463,1.249,1.979,1.979,0,0,1-1.422.463,6.584,6.584,0,0,1-.755-.038Zm.416,2.844a2.442,2.442,0,0,0,.42.024,1.237,1.237,0,0,0,1.369-1.366,1.147,1.147,0,0,0-1.3-1.239,2.5,2.5,0,0,0-.488.041Z" transform="translate(103.71 12.092)" fill="#6d6e70"></path><g id="Group_184" data-name="Group 184" transform="translate(193.681 5.67)" opacity="0.9"><g id="Group_183" data-name="Group 183"><g id="Group_182" data-name="Group 182" clip-path="url(#clip-path-7)"><path id="Path_197" data-name="Path 197" d="M135.091,8.275a17.964,17.964,0,0,0-14-4.074,20.607,20.607,0,0,0-12.664,6.636,18.535,18.535,0,0,0-4.894,13.59,18.072,18.072,0,0,0,6.747,12.848,19.277,19.277,0,0,0,13.716,4.108A18.882,18.882,0,0,0,136.507,34.9a19.63,19.63,0,0,0,4.754-13.426,17.979,17.979,0,0,0-6.171-13.2m.121-.145A20.975,20.975,0,0,1,142.5,21.379a19.25,19.25,0,0,1-4.43,14.79,19.933,19.933,0,0,1-13.935,6.981,19.548,19.548,0,0,1-14.5-5.074,20.855,20.855,0,0,1-6.708-13.6,20.234,20.234,0,0,1,4.289-14.626A18.515,18.515,0,0,1,121,3.023,20.948,20.948,0,0,1,135.211,8.13" transform="translate(-102.824 -3.01)" fill="#fff"></path></g></g></g><path id="Path_198" data-name="Path 198" d="M5.842,12.489v4.779h4.332v2.3H5.842v8.97c0,2.063.586,3.232,2.27,3.232a6.721,6.721,0,0,0,1.754-.205L10,33.836a7.41,7.41,0,0,1-2.682.413,4.2,4.2,0,0,1-3.264-1.271c-.861-.895-1.17-2.373-1.17-4.332V19.571H.308v-2.3H2.887V13.28Z" transform="translate(0.272 11.036)" fill="#fff"></path><path id="Path_199" data-name="Path 199" d="M11.264,13.431a1.785,1.785,0,0,1-1.925,1.855,1.8,1.8,0,0,1-1.821-1.855A1.844,1.844,0,0,1,9.408,11.54a1.8,1.8,0,0,1,1.855,1.891M7.9,18.106h3.023V34.742H7.9Z" transform="translate(6.642 10.198)" fill="#fff"></path><path id="Path_200" data-name="Path 200" d="M23.583,35.484V21.151H16.6V35.484H13.615V21.151H11.277v-2.3h2.338V18.3a7.865,7.865,0,0,1,1.855-5.673,5.7,5.7,0,0,1,4.195-1.546,5.3,5.3,0,0,1,2.371.586L21.418,13.9a4.411,4.411,0,0,0-1.789-.414c-2.37,0-3.025,2.029-3.025,4.641v.723h6.979v-.791c0-2.338.55-4.47,1.959-5.809A5.767,5.767,0,0,1,29.565,10.7a6.85,6.85,0,0,1,2.577.48l-.377,2.338A4.693,4.693,0,0,0,29.8,13.14c-2.543,0-3.23,2.27-3.23,4.813v.895H30.6v2.3H26.608V35.484Z" transform="translate(9.965 9.456)" fill="#fff"></path><path id="Path_201" data-name="Path 201" d="M33.182,31.84l-.241-2.1h-.1a6.2,6.2,0,0,1-5.088,2.475,4.74,4.74,0,0,1-5.088-4.779c0-4.022,3.575-6.222,10-6.186v-.345c0-1.375-.379-3.85-3.782-3.85a8.292,8.292,0,0,0-4.33,1.236L23.868,16.3a10.309,10.309,0,0,1,5.464-1.479c5.09,0,6.327,3.47,6.327,6.805v6.223a23.531,23.531,0,0,0,.273,3.986Zm-.446-8.491c-3.3-.068-7.047.516-7.047,3.747a2.675,2.675,0,0,0,2.852,2.888A4.138,4.138,0,0,0,32.564,27.2a3.142,3.142,0,0,0,.171-.963Z" transform="translate(20.026 13.1)" fill="#fff"></path><path id="Path_202" data-name="Path 202" d="M32.583,19.707c0-1.72-.034-3.129-.136-4.5h2.68l.171,2.75h.07a6.114,6.114,0,0,1,5.5-3.129c2.3,0,5.881,1.375,5.881,7.082V31.84H43.72V22.25c0-2.68-1-4.916-3.85-4.916a4.3,4.3,0,0,0-4.055,3.095,4.345,4.345,0,0,0-.207,1.409v10H32.583Z" transform="translate(28.671 13.1)" fill="#fff"></path><path id="Path_203" data-name="Path 203" d="M44.907,15.026l3.645,9.831c.377,1.1.789,2.405,1.064,3.4h.07c.309-1,.654-2.268,1.066-3.47l3.3-9.763h3.2L52.711,26.885C50.545,32.591,49.066,35.512,47,37.3a8.188,8.188,0,0,1-3.711,1.959l-.757-2.543a7.942,7.942,0,0,0,2.646-1.479,9.131,9.131,0,0,0,2.543-3.37,2.179,2.179,0,0,0,.241-.72,2.636,2.636,0,0,0-.205-.791L41.607,15.026Z" transform="translate(36.764 13.278)" fill="#fff"></path><path id="Path_204" data-name="Path 204" d="M68.467,23.384c0,6.154-4.263,8.836-8.284,8.836-4.5,0-7.975-3.3-7.975-8.559,0-5.57,3.645-8.836,8.25-8.836,4.779,0,8.009,3.471,8.009,8.559m-13.2.173c0,3.643,2.1,6.393,5.054,6.393,2.888,0,5.052-2.716,5.052-6.463,0-2.818-1.409-6.395-4.982-6.395s-5.123,3.3-5.123,6.465" transform="translate(46.132 13.1)" fill="#ffd817"></path><path id="Path_205" data-name="Path 205" d="M67.761,12.489v4.779h4.332v2.3H67.761v8.97c0,2.063.586,3.232,2.268,3.232a6.71,6.71,0,0,0,1.754-.205l.137,2.268a7.391,7.391,0,0,1-2.68.413,4.2,4.2,0,0,1-3.266-1.271c-.859-.895-1.168-2.373-1.168-4.332V19.571H62.227v-2.3h2.579V13.28Z" transform="translate(54.985 11.036)" fill="#ffd817"></path><path id="Path_206" data-name="Path 206" d="M74.167,12.489v4.779H78.5v2.3H74.167v8.97c0,2.063.586,3.232,2.268,3.232a6.71,6.71,0,0,0,1.754-.205l.137,2.268a7.391,7.391,0,0,1-2.68.413,4.2,4.2,0,0,1-3.266-1.271c-.859-.895-1.168-2.373-1.168-4.332V19.571H68.633v-2.3h2.579V13.28Z" transform="translate(60.645 11.036)" fill="#ffd817"></path><path id="Path_207" data-name="Path 207" d="M78.182,24.072c.068,4.091,2.682,5.775,5.705,5.775a10.934,10.934,0,0,0,4.607-.859l.514,2.166a13.478,13.478,0,0,1-5.532,1.03c-5.123,0-8.182-3.368-8.182-8.388s2.955-8.972,7.8-8.972c5.432,0,6.877,4.779,6.877,7.838a11.481,11.481,0,0,1-.1,1.409Zm8.868-2.164c.036-1.925-.791-4.916-4.195-4.916-3.059,0-4.4,2.82-4.637,4.916Z" transform="translate(66.531 13.1)" fill="#ffd817"></path><path id="Path_208" data-name="Path 208" d="M85.5,19.707c0-1.72-.034-3.129-.138-4.5h2.682l.17,2.75h.072a6.111,6.111,0,0,1,5.5-3.129c2.3,0,5.879,1.375,5.879,7.082V31.84H96.642V22.25c0-2.68-1-4.916-3.85-4.916a4.3,4.3,0,0,0-4.055,3.095,4.345,4.345,0,0,0-.207,1.409v10H85.5Z" transform="translate(75.431 13.1)" fill="#ffd817"></path></g></g></g></svg> 